<svg width="25" height="24" viewBox="0 0 25 24" fill="none" xmlns="http://www.w3.org/2000/svg">
<path d="M9.5 21C8.95 21 8.47933 20.8043 8.088 20.413C7.696 20.021 7.5 19.55 7.5 19V9C7.5 8.45 7.696 7.979 8.088 7.587C8.47933 7.19567 8.95 7 9.5 7H19.5C20.05 7 20.521 7.19567 20.913 7.587C21.3043 7.979 21.5 8.45 21.5 9V19C21.5 19.55 21.3043 20.021 20.913 20.413C20.521 20.8043 20.05 21 19.5 21H9.5ZM10.5 11H18.5C18.7833 11 19.0207 10.904 19.212 10.712C19.404 10.5207 19.5 10.2833 19.5 10C19.5 9.71667 19.404 9.479 19.212 9.287C19.0207 9.09567 18.7833 9 18.5 9H10.5C10.2167 9 9.97933 9.09567 9.788 9.287C9.596 9.479 9.5 9.71667 9.5 10C9.5 10.2833 9.596 10.5207 9.788 10.712C9.97933 10.904 10.2167 11 10.5 11ZM13.5 15H15.5V13H13.5V15ZM13.5 19H15.5V17H13.5V19ZM9.5 15H11.5V13H9.5V15ZM17.5 15H19.5V13H17.5V15ZM9.5 19H11.5V17H9.5V19ZM17.5 19H19.5V17H17.5V19ZM5.5 17C4.95 17 4.479 16.8043 4.087 16.413C3.69567 16.021 3.5 15.55 3.5 15V5C3.5 4.45 3.69567 3.979 4.087 3.587C4.479 3.19567 4.95 3 5.5 3H15.5C16.05 3 16.521 3.19567 16.913 3.587C17.3043 3.979 17.5 4.45 17.5 5V6H15.5V5H5.5V15H6.5V17H5.5Z" fill="#081234"/>
</svg>
